<svg xmlns="http://www.w3.org/2000/svg" width="20.633" height="18.054" viewBox="0 0 20.633 18.054">
  <path id="Icon_awesome-shower" data-name="Icon awesome-shower" d="M15.7,6.425l-6.37,6.37a.967.967,0,0,1-1.368,0l-.456-.456a.967.967,0,0,1,0-1.368l0,0a4.522,4.522,0,0,1-.137-5.657,3.132,3.132,0,0,0-4.8,2.654V20.3H0V7.963a5.71,5.71,0,0,1,9.576-4.2,4.523,4.523,0,0,1,4.3.847l0,0a.967.967,0,0,1,1.368,0l.456.456A.967.967,0,0,1,15.7,6.425Zm-.228,2.918A.645.645,0,1,1,14.83,8.7.645.645,0,0,1,15.474,9.342Zm1.29,0a.645.645,0,1,1,.645.645A.645.645,0,0,1,16.764,9.342Zm3.869,0a.645.645,0,1,1-.645-.645A.645.645,0,0,1,20.633,9.342Zm-6.448,1.29a.645.645,0,1,1-.645-.645A.645.645,0,0,1,14.185,10.632Zm1.934-.645a.645.645,0,1,1-.645.645A.645.645,0,0,1,16.119,9.987Zm3.224.645a.645.645,0,1,1-.645-.645A.645.645,0,0,1,19.343,10.632ZM12.9,11.922a.645.645,0,1,1-.645-.645A.645.645,0,0,1,12.9,11.922Zm1.29,0a.645.645,0,1,1,.645.645A.645.645,0,0,1,14.185,11.922Zm3.869,0a.645.645,0,1,1-.645-.645A.645.645,0,0,1,18.054,11.922ZM12.9,13.211a.645.645,0,1,1,.645.645A.645.645,0,0,1,12.9,13.211Zm3.869,0a.645.645,0,1,1-.645-.645A.645.645,0,0,1,16.764,13.211ZM12.9,14.5a.645.645,0,1,1-.645-.645A.645.645,0,0,1,12.9,14.5Zm2.579,0a.645.645,0,1,1-.645-.645A.645.645,0,0,1,15.474,14.5Zm-1.29,1.29a.645.645,0,1,1-.645-.645A.645.645,0,0,1,14.185,15.79ZM12.9,17.08a.645.645,0,1,1-.645-.645A.645.645,0,0,1,12.9,17.08Z" transform="translate(0 -2.25)" fill="#7e7e8b"/>
</svg>
