<svg xmlns="http://www.w3.org/2000/svg" width="21.468" height="24.535" viewBox="0 0 21.468 24.535">
  <path id="bell" d="M10.729,23A1.536,1.536,0,0,1,9.2,21.466H7.663a3.067,3.067,0,1,0,6.134,0H12.263A1.536,1.536,0,0,1,10.729,23Zm10.033-6.957c-1.34-1.276-2.364-2.611-2.364-7.136a7.477,7.477,0,0,0-6.9-7.3V.767a.767.767,0,1,0-1.533,0v.841a7.476,7.476,0,0,0-6.9,7.3c0,4.525-1.025,5.86-2.365,7.136A2.23,2.23,0,0,0,.156,18.5,2.287,2.287,0,0,0,2.3,19.934H19.163A2.287,2.287,0,0,0,21.3,18.5,2.23,2.23,0,0,0,20.763,16.044Zm-1.6,2.357H2.3a.727.727,0,0,1-.542-1.246c1.67-1.59,2.841-3.371,2.841-8.246a5.991,5.991,0,0,1,6.136-5.842,5.991,5.991,0,0,1,6.136,5.841c0,4.857,1.16,6.646,2.841,8.246A.728.728,0,0,1,19.163,18.4Z" transform="translate(0.005)" fill="#fff"/>
</svg>
