<svg xmlns="http://www.w3.org/2000/svg" width="22.428" height="17.441" viewBox="0 0 22.428 17.441">
  <path id="Icon_awesome-home" data-name="Icon awesome-home" d="M10.915,6.778,3.737,12.69v6.381a.623.623,0,0,0,.623.623l4.363-.011a.623.623,0,0,0,.62-.623V15.333a.623.623,0,0,1,.623-.623h2.492a.623.623,0,0,1,.623.623v3.724a.623.623,0,0,0,.623.625l4.361.012a.623.623,0,0,0,.623-.623V12.686L11.511,6.778A.475.475,0,0,0,10.915,6.778ZM22.254,10.8,19,8.114V2.721a.467.467,0,0,0-.467-.467h-2.18a.467.467,0,0,0-.467.467V5.548L12.4,2.68a1.869,1.869,0,0,0-2.375,0L.168,10.8a.467.467,0,0,0-.062.658L1.1,12.661a.467.467,0,0,0,.658.063l9.158-7.543a.475.475,0,0,1,.6,0l9.158,7.543a.467.467,0,0,0,.658-.062l.993-1.207a.467.467,0,0,0-.066-.659Z" transform="translate(0.001 -2.254)" fill="#7e7e8b"/>
</svg>
