<svg xmlns="http://www.w3.org/2000/svg" width="21.412" height="21.412" viewBox="0 0 21.412 21.412">
  <path id="comment-alt-lines" d="M18.735,0H2.676A2.679,2.679,0,0,0,0,2.676V14.72A2.679,2.679,0,0,0,2.676,17.4H6.691V20.91a.5.5,0,0,0,.5.5.48.48,0,0,0,.3-.1L12.713,17.4h6.022a2.679,2.679,0,0,0,2.676-2.676V2.676A2.679,2.679,0,0,0,18.735,0Zm1.338,14.72a1.342,1.342,0,0,1-1.338,1.338H12.266l-.355.268L8.029,19.237V16.059H2.676A1.342,1.342,0,0,1,1.338,14.72V2.676A1.342,1.342,0,0,1,2.676,1.338H18.735a1.342,1.342,0,0,1,1.338,1.338Zm-8.364-4.684H5.687a.336.336,0,0,0-.335.335v.669a.336.336,0,0,0,.335.335h6.022a.336.336,0,0,0,.335-.335v-.669A.336.336,0,0,0,11.709,10.037Zm4.015-4.015H5.687a.336.336,0,0,0-.335.335v.669a.336.336,0,0,0,.335.335H15.724a.336.336,0,0,0,.335-.335V6.357A.336.336,0,0,0,15.724,6.022Z" fill="#fff"/>
</svg>
