<svg xmlns="http://www.w3.org/2000/svg" width="20.814" height="20.814" viewBox="0 0 20.814 20.814">
  <g id="Grupo_754" data-name="Grupo 754" transform="translate(0 0)">
    <path id="Trazado_190" data-name="Trazado 190" d="M1.041,18.241V19.57A1.041,1.041,0,0,0,2.081,20.61H3.122A1.041,1.041,0,0,0,4.163,19.57V18.529H16.651V19.57a1.041,1.041,0,0,0,1.041,1.041h1.041a1.041,1.041,0,0,0,1.041-1.041V18.241a2.071,2.071,0,0,0,1.041-1.793V13.326a2.083,2.083,0,0,0-1.278-1.92L18.112,7.134A3.117,3.117,0,0,0,15.152,5H5.662A3.117,3.117,0,0,0,2.7,7.134L1.278,11.405A2.083,2.083,0,0,0,0,13.326v3.122A2.073,2.073,0,0,0,1.041,18.241Zm2.6-1.793a1.562,1.562,0,1,1,1.1-.457,1.562,1.562,0,0,1-1.1.457Zm13.529,0a1.561,1.561,0,1,1,1.1-.457,1.561,1.561,0,0,1-1.1.457ZM5.662,7.081H15.15a1.041,1.041,0,0,1,.988.712l1.151,3.451H3.525l1.15-3.451a1.042,1.042,0,0,1,.988-.712Z" transform="translate(0 0.204)" fill="#7e7e8b"/>
    <path id="Trazado_191" data-name="Trazado 191" d="M20.814,5.607V3.412L10.736.053a1.037,1.037,0,0,0-.685.009L0,3.717V5.932l10.423-3.79Z" transform="translate(0 0)" fill="#7e7e8b"/>
  </g>
</svg>
