<svg xmlns="http://www.w3.org/2000/svg" width="20.846" height="20.846" viewBox="0 0 20.846 20.846">
  <path id="Icon_map-gym" data-name="Icon map-gym" d="M8.331,20.224a.445.445,0,0,1-.022.626l-.96.9a.441.441,0,0,1-.624-.023L1.136,15.7a.445.445,0,0,1,.023-.626l.961-.9a.441.441,0,0,1,.624.023ZM15.463,8.889a.445.445,0,0,1-.023.626L9.4,15.158a.441.441,0,0,1-.624-.023L7.334,13.579a.445.445,0,0,1,.023-.626L13.4,7.311a.441.441,0,0,1,.623.023ZM10.386,18.3a.445.445,0,0,1-.023.626l-.961.9a.441.441,0,0,1-.624-.023L3.192,13.779a.445.445,0,0,1,.022-.626l.959-.9a.441.441,0,0,1,.624.023Zm9.308-9.2a.445.445,0,0,1-.023.626l-.961.9a.442.442,0,0,1-.624-.022L12.5,4.583a.445.445,0,0,1,.022-.626l.963-.9a.441.441,0,0,1,.623.023Zm2.052-1.918a.446.446,0,0,1-.023.626l-.959.9a.441.441,0,0,1-.623-.022L14.555,2.662a.446.446,0,0,1,.022-.626l.96-.9a.44.44,0,0,1,.623.022Z" transform="translate(-1.018 -1.019)" fill="#7e7e8b"/>
</svg>
