<svg xmlns="http://www.w3.org/2000/svg" width="21.917" height="21.917" viewBox="0 0 21.917 21.917">
  <path id="Trazado_183" data-name="Trazado 183" d="M17.533,12.054a6.58,6.58,0,0,0-6.575,6.575A6.58,6.58,0,0,0,17.533,12.054Zm-13.15,0a6.58,6.58,0,0,0,6.575,6.575A6.58,6.58,0,0,0,4.383,12.054ZM6.575,9.9A1.712,1.712,0,0,0,9.26,11.3l-.011.131a1.709,1.709,0,0,0,3.419,0l-.011-.131a1.746,1.746,0,0,0,.975.307,1.71,1.71,0,0,0,.734-3.255,1.7,1.7,0,1,0-1.709-2.937l.011-.131a1.709,1.709,0,1,0-3.419,0l.011.131A1.709,1.709,0,1,0,7.55,8.361,1.7,1.7,0,0,0,6.575,9.9Zm4.383-3.255A1.709,1.709,0,1,1,9.249,8.35,1.712,1.712,0,0,1,10.958,6.641Zm8.767-4.449V19.725H2.192V2.192Zm0-2.192H2.192A2.2,2.2,0,0,0,0,2.192V19.725a2.2,2.2,0,0,0,2.192,2.192H19.725a2.2,2.2,0,0,0,2.192-2.192V2.192A2.2,2.2,0,0,0,19.725,0Z" fill="#7e7e8b"/>
</svg>
