<svg xmlns="http://www.w3.org/2000/svg" width="27.39" height="16.434" viewBox="0 0 27.39 16.434">
  <path id="Icon_awesome-bed" data-name="Icon awesome-bed" d="M7.532,12.717A3.424,3.424,0,1,0,4.109,9.293,3.428,3.428,0,0,0,7.532,12.717ZM22.6,7.239H13.01a.685.685,0,0,0-.685.685v6.163H2.739v-8.9A.685.685,0,0,0,2.054,4.5H.685A.685.685,0,0,0,0,5.185V20.25a.685.685,0,0,0,.685.685h1.37a.685.685,0,0,0,.685-.685V18.2H24.651V20.25a.685.685,0,0,0,.685.685h1.37a.685.685,0,0,0,.685-.685V12.032A4.793,4.793,0,0,0,22.6,7.239Z" transform="translate(0 -4.5)" fill="#7e7e8b"/>
</svg>
