<svg xmlns="http://www.w3.org/2000/svg" width="25.033" height="25.036" viewBox="0 0 25.033 25.036">
  <path id="Icon_map-tennis" data-name="Icon map-tennis" d="M3.228,12.824a.953.953,0,1,0,0,1.906.953.953,0,0,0,0-1.906ZM16.521,4.866A2.075,2.075,0,1,0,14.438,2.8,2.073,2.073,0,0,0,16.521,4.866Zm8.934,18.468-3.378-3.977s-1.055-6.141-1.055-6.154l-.158-.7c.006.007-.425-1.937-.755-3.456.527.3,1,.576,1.028.589.026.056,1.79,3.406,1.79,3.406a1.065,1.065,0,0,0,.623.513,1.048,1.048,0,0,0,.807-.076,1.017,1.017,0,0,0,.513-.62.991.991,0,0,0-.07-.8L22.866,8.386a1.3,1.3,0,0,0-.178-.234,2.657,2.657,0,0,0-.446-.31L18.484,5.708A2.292,2.292,0,0,0,16.953,5.5a2.221,2.221,0,0,0-.647.253,2.82,2.82,0,0,0-1.34,1.5l-1.93,3.874-3.042.589-.07.025L7.178,9.8c-.616-.43-.692-1.722-.7-1.773a3.2,3.2,0,0,0-1.4-2.3,3.359,3.359,0,0,0-2.439-.608,2.314,2.314,0,0,0-1.518.919,2.227,2.227,0,0,0-.406,1.3l.038.419a3.321,3.321,0,0,0,1.378,2.1,3.3,3.3,0,0,0,2.438.608l.191-.038c.019-.013,1.238-.387,1.835.019,0,.006,2.054,1.449,2.6,1.836a.923.923,0,0,0-.152.488,1.055,1.055,0,0,0,1.257,1.026l3.644-.71a2.087,2.087,0,0,0,.445-.19,1.164,1.164,0,0,0,.3-.373l.959-1.925s.661,3.108.672,3.165c-.076.076-2.989,3.159-2.989,3.159L13.223,17a1.36,1.36,0,0,0-.507.962v6.533a1.3,1.3,0,0,0,2.608,0V19.035a36.649,36.649,0,0,0,3.123-3.249c.064.367.653,3.68.653,3.68a1.472,1.472,0,0,0,.407.771c0,.007,4.015,4.731,4.015,4.731a1.317,1.317,0,0,0,.864.442,1.288,1.288,0,0,0,.923-.3,1.27,1.27,0,0,0,.445-.964,1.246,1.246,0,0,0-.3-.816ZM5.425,9.089a1.505,1.505,0,0,1-.99.589A2.458,2.458,0,0,1,2.613,9.2,2.48,2.48,0,0,1,1.565,7.639l-.026-.3a1.4,1.4,0,0,1,.255-.829A2.038,2.038,0,0,1,4.612,6.4,2.022,2.022,0,0,1,5.425,9.089Z" transform="translate(-0.72 -0.717)" fill="#848484"/>
</svg>
